<?xml version="1.0" encoding="UTF-8" standalone="no"?>
<!DOCTYPE svg PUBLIC "-//W3C//DTD SVG 1.1//EN"
 "http://www.w3.org/Graphics/SVG/1.1/DTD/svg11.dtd">
<!-- Generated by graphviz version 2.38.0 (20140413.2041)
 -->
<!-- Title: G Pages: 1 -->
<svg width="430pt" height="288pt"
 viewBox="0.00 0.00 430.49 288.00" xmlns="http://www.w3.org/2000/svg" xmlns:xlink="http://www.w3.org/1999/xlink">
<g id="graph0" class="graph" transform="scale(0.508834 0.508834) rotate(0) translate(4 562)">
<title>G</title>
<polygon fill="white" stroke="none" points="-4,4 -4,-562 842.023,-562 842.023,4 -4,4"/>
<g id="clust1" class="cluster"><title>cluster_0</title>
<polygon fill="#000000" fill-opacity="0.058824" stroke="#000000" stroke-opacity="0.058824" points="371.263,-8 371.263,-298 714.743,-298 714.743,-8 371.263,-8"/>
<text text-anchor="middle" x="543.003" y="-282.8" font-family="Times,serif" font-size="14.00">Types</text>
</g>
<!-- u1 -->
<g id="node1" class="node"><title>u1</title>
<ellipse fill="#bbffbb" stroke="black" stroke-width="0" cx="60.8232" cy="-396" rx="49.3119" ry="18"/>
<text text-anchor="middle" x="60.8232" y="-391.8" font-family="Times,serif" font-size="14.00">BootParser</text>
</g>
<!-- u2 -->
<g id="node11" class="node"><title>u2</title>
<ellipse fill="#ffffbb" stroke="black" stroke-width="0" cx="450.823" cy="-106" rx="55.594" ry="18"/>
<text text-anchor="middle" x="450.823" y="-101.8" font-family="Times,serif" font-size="14.00">Construction</text>
</g>
<!-- u1&#45;&gt;u2 -->
<g id="edge1" class="edge"><title>u1&#45;&gt;u2</title>
<path fill="none" stroke="black" d="M81.7913,-379.516C146.843,-331.478 345.393,-184.856 421.084,-128.961"/>
<polygon fill="black" stroke="black" points="423.308,-131.67 429.273,-122.914 419.15,-126.039 423.308,-131.67"/>
</g>
<!-- u3 -->
<g id="node2" class="node"><title>u3</title>
<ellipse fill="#bbffbb" stroke="black" stroke-width="0" cx="243.823" cy="-396" rx="79.1867" ry="18"/>
<text text-anchor="middle" x="243.823" y="-391.8" font-family="Times,serif" font-size="14.00">GrammarGenerator</text>
</g>
<!-- u4 -->
<g id="node12" class="node"><title>u4</title>
<ellipse fill="#ffffbb" stroke="black" stroke-width="0" cx="450.823" cy="-178" rx="27" ry="18"/>
<text text-anchor="middle" x="450.823" y="-173.8" font-family="Times,serif" font-size="14.00">Ast</text>
</g>
<!-- u3&#45;&gt;u4 -->
<g id="edge3" class="edge"><title>u3&#45;&gt;u4</title>
<path fill="none" stroke="black" d="M254.928,-377.927C275.775,-346.671 323.247,-279.135 373.823,-232 388.611,-218.219 407.236,-205.301 422.465,-195.67"/>
<polygon fill="black" stroke="black" points="424.323,-198.636 430.984,-190.397 420.639,-192.684 424.323,-198.636"/>
</g>
<!-- u5 -->
<g id="node3" class="node"><title>u5</title>
<ellipse fill="#bbffbb" stroke="black" stroke-width="0" cx="424.823" cy="-396" rx="48.36" ry="18"/>
<text text-anchor="middle" x="424.823" y="-391.8" font-family="Times,serif" font-size="14.00">Ambiguity</text>
</g>
<!-- u5&#45;&gt;u4 -->
<g id="edge5" class="edge"><title>u5&#45;&gt;u4</title>
<path fill="none" stroke="black" d="M406.844,-379.254C397.184,-369.588 386.184,-356.338 380.823,-342 376.485,-330.397 376.316,-238.994 379.823,-232 388.216,-215.261 404.682,-202.457 419.645,-193.631"/>
<polygon fill="black" stroke="black" points="421.614,-196.542 428.682,-188.65 418.234,-190.412 421.614,-196.542"/>
</g>
<!-- u6 -->
<g id="node4" class="node"><title>u6</title>
<ellipse fill="#bbffbb" stroke="black" stroke-width="0" cx="483.823" cy="-324" rx="94.2396" ry="18"/>
<text text-anchor="middle" x="483.823" y="-319.8" font-family="Times,serif" font-size="14.00">ConstructionResolution</text>
</g>
<!-- u8 -->
<g id="node14" class="node"><title>u8</title>
<ellipse fill="#ffffbb" stroke="black" stroke-width="0" cx="594.823" cy="-250" rx="88.9188" ry="18"/>
<text text-anchor="middle" x="594.823" y="-245.8" font-family="Times,serif" font-size="14.00">ResolvedConstruction</text>
</g>
<!-- u6&#45;&gt;u8 -->
<g id="edge6" class="edge"><title>u6&#45;&gt;u8</title>
<path fill="none" stroke="black" d="M509.289,-306.482C524.518,-296.603 544.065,-283.924 560.628,-273.181"/>
<polygon fill="black" stroke="black" points="562.991,-275.82 569.476,-267.441 559.182,-269.947 562.991,-275.82"/>
</g>
<!-- u10 -->
<g id="node16" class="node"><title>u10</title>
<ellipse fill="#ffffbb" stroke="black" stroke-width="0" cx="421.823" cy="-250" rx="32.9168" ry="18"/>
<text text-anchor="middle" x="421.823" y="-245.8" font-family="Times,serif" font-size="14.00">Result</text>
</g>
<!-- u6&#45;&gt;u10 -->
<g id="edge7" class="edge"><title>u6&#45;&gt;u10</title>
<path fill="none" stroke="black" d="M469.13,-305.937C460.992,-296.487 450.759,-284.603 441.893,-274.307"/>
<polygon fill="black" stroke="black" points="444.32,-271.762 435.143,-266.468 439.016,-276.329 444.32,-271.762"/>
</g>
<!-- u11 -->
<g id="node5" class="node"><title>u11</title>
<ellipse fill="#bbffbb" stroke="black" stroke-width="0" cx="671.823" cy="-324" rx="38.7128" ry="18"/>
<text text-anchor="middle" x="671.823" y="-319.8" font-family="Times,serif" font-size="14.00">Binding</text>
</g>
<!-- u11&#45;&gt;u8 -->
<g id="edge11" class="edge"><title>u11&#45;&gt;u8</title>
<path fill="none" stroke="black" d="M655.115,-307.377C644.981,-297.901 631.843,-285.616 620.419,-274.933"/>
<polygon fill="black" stroke="black" points="622.536,-272.122 612.841,-267.848 617.755,-277.235 622.536,-272.122"/>
</g>
<!-- u11&#45;&gt;u10 -->
<g id="edge12" class="edge"><title>u11&#45;&gt;u10</title>
<path fill="none" stroke="black" d="M637.643,-315.282C622.189,-312.02 603.655,-308.424 586.823,-306 547.076,-300.276 534.889,-310.793 496.823,-298 479.259,-292.097 461.601,-281.327 447.834,-271.584"/>
<polygon fill="black" stroke="black" points="449.524,-268.483 439.39,-265.392 445.384,-274.128 449.524,-268.483"/>
</g>
<!-- u12 -->
<g id="node6" class="node"><title>u12</title>
<ellipse fill="#bbffbb" stroke="black" stroke-width="0" cx="625.823" cy="-396" rx="58.491" ry="18"/>
<text text-anchor="middle" x="625.823" y="-391.8" font-family="Times,serif" font-size="14.00">FullExpander</text>
</g>
<!-- u12&#45;&gt;u11 -->
<g id="edge13" class="edge"><title>u12&#45;&gt;u11</title>
<path fill="none" stroke="black" d="M636.959,-378.055C642.52,-369.592 649.356,-359.19 655.497,-349.845"/>
<polygon fill="black" stroke="black" points="658.54,-351.586 661.107,-341.307 652.69,-347.742 658.54,-351.586"/>
</g>
<!-- u13 -->
<g id="node7" class="node"><title>u13</title>
<ellipse fill="#bbffbb" stroke="black" stroke-width="0" cx="778.823" cy="-396" rx="47.3392" ry="18"/>
<text text-anchor="middle" x="778.823" y="-391.8" font-family="Times,serif" font-size="14.00">Interpreter</text>
</g>
<!-- u13&#45;&gt;u4 -->
<g id="edge14" class="edge"><title>u13&#45;&gt;u4</title>
<path fill="none" stroke="black" d="M775.04,-377.974C766.611,-344.278 742.951,-269.147 692.823,-232 624.822,-181.608 587.933,-216.528 505.823,-196 498.853,-194.257 491.46,-192.153 484.431,-190.027"/>
<polygon fill="black" stroke="black" points="485.075,-186.562 474.487,-186.937 482.998,-193.247 485.075,-186.562"/>
</g>
<!-- u14 -->
<g id="node8" class="node"><title>u14</title>
<ellipse fill="#bbffbb" stroke="black" stroke-width="0" cx="471.823" cy="-468" rx="62.8252" ry="18"/>
<text text-anchor="middle" x="471.823" y="-463.8" font-family="Times,serif" font-size="14.00">Experimenting</text>
</g>
<!-- u14&#45;&gt;u1 -->
<g id="edge15" class="edge"><title>u14&#45;&gt;u1</title>
<path fill="none" stroke="black" d="M418.957,-458.314C356.177,-447.957 248.315,-430.032 155.823,-414 142.405,-411.674 127.93,-409.111 114.423,-406.697"/>
<polygon fill="black" stroke="black" points="114.776,-403.205 104.316,-404.886 113.542,-410.095 114.776,-403.205"/>
</g>
<!-- u14&#45;&gt;u3 -->
<g id="edge16" class="edge"><title>u14&#45;&gt;u3</title>
<path fill="none" stroke="black" d="M430.534,-454.324C393.665,-443.004 339.38,-426.338 298.835,-413.89"/>
<polygon fill="black" stroke="black" points="299.691,-410.491 289.104,-410.902 297.636,-417.183 299.691,-410.491"/>
</g>
<!-- u14&#45;&gt;u5 -->
<g id="edge17" class="edge"><title>u14&#45;&gt;u5</title>
<path fill="none" stroke="black" d="M460.446,-450.055C454.846,-441.715 447.981,-431.491 441.778,-422.252"/>
<polygon fill="black" stroke="black" points="444.576,-420.14 436.096,-413.789 438.764,-424.042 444.576,-420.14"/>
</g>
<!-- u14&#45;&gt;u6 -->
<g id="edge18" class="edge"><title>u14&#45;&gt;u6</title>
<path fill="none" stroke="black" d="M475.783,-449.919C477.995,-439.585 480.554,-426.106 481.823,-414 483.986,-393.379 484.431,-369.929 484.365,-352.278"/>
<polygon fill="black" stroke="black" points="487.863,-352.081 484.268,-342.115 480.864,-352.147 487.863,-352.081"/>
</g>
<!-- u14&#45;&gt;u12 -->
<g id="edge19" class="edge"><title>u14&#45;&gt;u12</title>
<path fill="none" stroke="black" d="M503.732,-452.496C527.325,-441.772 559.637,-427.085 585.094,-415.513"/>
<polygon fill="black" stroke="black" points="586.827,-418.57 594.482,-411.246 583.93,-412.198 586.827,-418.57"/>
</g>
<!-- u14&#45;&gt;u13 -->
<g id="edge20" class="edge"><title>u14&#45;&gt;u13</title>
<path fill="none" stroke="black" d="M519.455,-456.139C576.493,-443.134 671.555,-421.459 729.383,-408.273"/>
<polygon fill="black" stroke="black" points="730.408,-411.629 739.38,-405.994 728.852,-404.804 730.408,-411.629"/>
</g>
<!-- u15 -->
<g id="node9" class="node"><title>u15</title>
<ellipse fill="#bbffbb" stroke="black" stroke-width="0" cx="471.823" cy="-540" rx="28.5497" ry="18"/>
<text text-anchor="middle" x="471.823" y="-535.8" font-family="Times,serif" font-size="14.00">Main</text>
</g>
<!-- u15&#45;&gt;u14 -->
<g id="edge21" class="edge"><title>u15&#45;&gt;u14</title>
<path fill="none" stroke="black" d="M471.823,-521.697C471.823,-513.983 471.823,-504.712 471.823,-496.112"/>
<polygon fill="black" stroke="black" points="475.323,-496.104 471.823,-486.104 468.323,-496.104 475.323,-496.104"/>
</g>
<!-- u0 -->
<g id="node10" class="node"><title>u0</title>
<ellipse fill="#ffffbb" stroke="black" stroke-width="0" cx="450.823" cy="-34" rx="30.9532" ry="18"/>
<text text-anchor="middle" x="450.823" y="-29.8" font-family="Times,serif" font-size="14.00">Lexer</text>
</g>
<!-- u2&#45;&gt;u0 -->
<g id="edge2" class="edge"><title>u2&#45;&gt;u0</title>
<path fill="none" stroke="black" d="M450.823,-87.6966C450.823,-79.9827 450.823,-70.7125 450.823,-62.1124"/>
<polygon fill="black" stroke="black" points="454.323,-62.1043 450.823,-52.1043 447.323,-62.1044 454.323,-62.1043"/>
</g>
<!-- u4&#45;&gt;u2 -->
<g id="edge4" class="edge"><title>u4&#45;&gt;u2</title>
<path fill="none" stroke="black" d="M450.823,-159.697C450.823,-151.983 450.823,-142.712 450.823,-134.112"/>
<polygon fill="black" stroke="black" points="454.323,-134.104 450.823,-124.104 447.323,-134.104 454.323,-134.104"/>
</g>
<!-- u7 -->
<g id="node13" class="node"><title>u7</title>
<ellipse fill="#ffffbb" stroke="black" stroke-width="0" cx="543.823" cy="-178" rx="29.0429" ry="18"/>
<text text-anchor="middle" x="543.823" y="-173.8" font-family="Times,serif" font-size="14.00">Paths</text>
</g>
<!-- u8&#45;&gt;u4 -->
<g id="edge8" class="edge"><title>u8&#45;&gt;u4</title>
<path fill="none" stroke="black" d="M562.147,-233.116C537.934,-221.345 505.161,-205.414 481.45,-193.888"/>
<polygon fill="black" stroke="black" points="482.735,-190.621 472.211,-189.397 479.675,-196.917 482.735,-190.621"/>
</g>
<!-- u8&#45;&gt;u7 -->
<g id="edge9" class="edge"><title>u8&#45;&gt;u7</title>
<path fill="none" stroke="black" d="M582.478,-232.055C576.158,-223.381 568.354,-212.669 561.416,-203.147"/>
<polygon fill="black" stroke="black" points="564.074,-200.851 555.356,-194.829 558.416,-204.973 564.074,-200.851"/>
</g>
<!-- u9 -->
<g id="node15" class="node"><title>u9</title>
<ellipse fill="#ffffbb" stroke="black" stroke-width="0" cx="652.823" cy="-178" rx="41.118" ry="18"/>
<text text-anchor="middle" x="652.823" y="-173.8" font-family="Times,serif" font-size="14.00">GenSym</text>
</g>
<!-- u8&#45;&gt;u9 -->
<g id="edge10" class="edge"><title>u8&#45;&gt;u9</title>
<path fill="none" stroke="black" d="M608.863,-232.055C616.02,-223.418 624.851,-212.76 632.715,-203.268"/>
<polygon fill="black" stroke="black" points="635.627,-205.24 639.312,-195.307 630.236,-200.774 635.627,-205.24"/>
</g>
</g>
</svg>
